<svg width="114" height="28" viewBox="0 0 114 28" fill="none" xmlns="http://www.w3.org/2000/svg">
<path d="M0.610085 27V1.54545H16.7305V5.19957H4.9478V12.4208H15.6119V16.0874H4.9478V27H0.610085ZM27.8817 27V7.90909H32.0952V27H27.8817ZM30.0071 5.11257C29.3194 5.11257 28.7269 4.88471 28.2298 4.42898C27.7409 3.96496 27.4964 3.40566 27.4964 2.75106C27.4964 2.10476 27.7409 1.5496 28.2298 1.08558C28.7269 0.621567 29.3194 0.389559 30.0071 0.389559C30.6948 0.389559 31.2831 0.621567 31.772 1.08558C32.2692 1.5496 32.5178 2.10476 32.5178 2.75106C32.5178 3.40566 32.2692 3.96496 31.772 4.42898C31.2831 4.88471 30.6948 5.11257 30.0071 5.11257ZM48.0502 1.54545V27H43.8368V1.54545H48.0502ZM59.7919 27V7.90909H63.8313V11.1033H64.055C64.4528 10.0262 65.1074 9.18513 66.0188 8.58025C66.9303 7.96709 68.024 7.66051 69.3001 7.66051C70.5844 7.66051 71.6657 7.96709 72.544 8.58025C73.4306 9.19342 74.0645 10.0344 74.4457 11.1033H74.6445C75.0837 10.0593 75.8046 9.22656 76.8072 8.60511C77.8098 7.97538 78.9988 7.66051 80.3743 7.66051C82.1226 7.66051 83.5478 8.21153 84.6499 9.31356C85.7602 10.4156 86.3153 12.0397 86.3153 14.1857V27H82.1019V14.7575C82.1019 13.5394 81.7705 12.6487 81.1076 12.0852C80.453 11.5218 79.6576 11.2401 78.7212 11.2401C77.5861 11.2401 76.7036 11.5922 76.0739 12.2965C75.4441 12.9925 75.1293 13.8916 75.1293 14.9936V27H70.978V14.5586C70.978 13.556 70.6714 12.7522 70.0582 12.1474C69.4451 11.5425 68.6496 11.2401 67.6719 11.2401C67.0007 11.2401 66.3875 11.4141 65.8324 11.7621C65.2772 12.1018 64.8339 12.5782 64.5025 13.1914C64.171 13.8046 64.0053 14.5172 64.0053 15.3292V27H59.7919ZM112.835 12.8185L109.007 13.3157C108.883 12.8931 108.671 12.4954 108.373 12.1225C108.083 11.7496 107.694 11.4472 107.205 11.2152C106.716 10.9749 106.107 10.8548 105.378 10.8548C104.4 10.8548 103.58 11.0702 102.917 11.5011C102.262 11.9319 101.935 12.4912 101.935 13.179C101.935 13.759 102.154 14.2313 102.594 14.5959C103.033 14.9605 103.749 15.2588 104.744 15.4908L107.926 16.1868C109.707 16.5845 111.037 17.206 111.915 18.0511C112.794 18.8963 113.233 19.9983 113.233 21.3572C113.233 22.5339 112.889 23.5779 112.201 24.4893C111.522 25.3925 110.581 26.101 109.38 26.6147C108.178 27.1284 106.79 27.3853 105.216 27.3853C102.946 27.3853 101.11 26.9047 99.71 25.9435C98.318 24.9824 97.477 23.6359 97.187 21.9041L101.289 21.4442C101.496 22.3308 101.931 23.002 102.594 23.4577C103.265 23.9052 104.131 24.1289 105.191 24.1289C106.318 24.1289 107.221 23.8969 107.901 23.4329C108.58 22.9689 108.92 22.3971 108.92 21.7177C108.92 21.1542 108.704 20.6861 108.274 20.3132C107.851 19.9321 107.192 19.6462 106.297 19.4556L103.053 18.7596C101.239 18.3701 99.8965 17.7238 99.0265 16.8207C98.1647 15.9175 97.7338 14.7782 97.7338 13.4027C97.7338 12.2427 98.0529 11.2359 98.6909 10.3825C99.3372 9.52071 100.232 8.85369 101.376 8.38139C102.519 7.9008 103.836 7.66051 105.328 7.66051C107.499 7.66051 109.21 8.12867 110.461 9.06499C111.712 9.99302 112.504 11.2442 112.835 12.8185Z" fill="white"/>
<path d="M0.610085 27H-0.389915V28H0.610085V27ZM0.610085 1.54545V0.545454H-0.389915V1.54545H0.610085ZM16.7305 1.54545H17.7305V0.545454H16.7305V1.54545ZM16.7305 5.19957V6.19957H17.7305V5.19957H16.7305ZM4.9478 5.19957V4.19957H3.9478V5.19957H4.9478ZM4.9478 12.4208H3.9478V13.4208H4.9478V12.4208ZM15.6119 12.4208H16.6119V11.4208H15.6119V12.4208ZM15.6119 16.0874V17.0874H16.6119V16.0874H15.6119ZM4.9478 16.0874V15.0874H3.9478V16.0874H4.9478ZM4.9478 27V28H5.9478V27H4.9478ZM1.61009 27V1.54545H-0.389915V27H1.61009ZM0.610085 2.54545H16.7305V0.545454H0.610085V2.54545ZM15.7305 1.54545V5.19957H17.7305V1.54545H15.7305ZM16.7305 4.19957H4.9478V6.19957H16.7305V4.19957ZM3.9478 5.19957V12.4208H5.9478V5.19957H3.9478ZM4.9478 13.4208H15.6119V11.4208H4.9478V13.4208ZM14.6119 12.4208V16.0874H16.6119V12.4208H14.6119ZM15.6119 15.0874H4.9478V17.0874H15.6119V15.0874ZM3.9478 16.0874V27H5.9478V16.0874H3.9478ZM4.9478 26H0.610085V28H4.9478V26ZM27.8817 27H26.8817V28H27.8817V27ZM27.8817 7.90909V6.90909H26.8817V7.90909H27.8817ZM32.0952 7.90909H33.0952V6.90909H32.0952V7.90909ZM32.0952 27V28H33.0952V27H32.0952ZM28.2298 4.42898L27.5413 5.15428L27.5476 5.16026L27.554 5.16613L28.2298 4.42898ZM28.2298 1.08558L27.5474 0.354501L27.5413 0.360276L28.2298 1.08558ZM31.772 1.08558L31.0836 1.81091L31.0897 1.81664L31.772 1.08558ZM31.772 4.42898L32.4539 5.16044L32.4543 5.16003L31.772 4.42898ZM28.8817 27V7.90909H26.8817V27H28.8817ZM27.8817 8.90909H32.0952V6.90909H27.8817V8.90909ZM31.0952 7.90909V27H33.0952V7.90909H31.0952ZM32.0952 26H27.8817V28H32.0952V26ZM30.0071 4.11257C29.5641 4.11257 29.2142 3.97484 28.9055 3.69182L27.554 5.16613C28.2396 5.79458 29.0746 6.11257 30.0071 6.11257V4.11257ZM28.9182 3.70367C28.6216 3.42215 28.4964 3.12234 28.4964 2.75106H26.4964C26.4964 3.68897 26.8602 4.50778 27.5413 5.15428L28.9182 3.70367ZM28.4964 2.75106C28.4964 2.39197 28.6186 2.0952 28.9182 1.81089L27.5413 0.360276C26.8631 1.004 26.4964 1.81754 26.4964 2.75106H28.4964ZM28.9121 1.81664C29.2218 1.52761 29.5695 1.38956 30.0071 1.38956V-0.610441C29.0693 -0.610441 28.2321 -0.284472 27.5474 0.354527L28.9121 1.81664ZM30.0071 1.38956C30.4444 1.38956 30.7847 1.52719 31.0836 1.81089L32.4604 0.360276C31.7816 -0.284059 30.9452 -0.610441 30.0071 -0.610441V1.38956ZM31.0897 1.81664C31.3961 2.10263 31.5178 2.39781 31.5178 2.75106H33.5178C33.5178 1.81171 33.1422 0.996561 32.4543 0.354527L31.0897 1.81664ZM31.5178 2.75106C31.5178 3.11654 31.3931 3.41473 31.0897 3.69792L32.4543 5.16003C33.1452 4.51519 33.5178 3.69478 33.5178 2.75106H31.5178ZM31.0901 3.69751C30.7923 3.9752 30.4499 4.11257 30.0071 4.11257V6.11257C30.9398 6.11257 31.774 5.79421 32.4539 5.16044L31.0901 3.69751ZM48.0502 1.54545H49.0502V0.545454H48.0502V1.54545ZM48.0502 27V28H49.0502V27H48.0502ZM43.8368 27H42.8368V28H43.8368V27ZM43.8368 1.54545V0.545454H42.8368V1.54545H43.8368ZM47.0502 1.54545V27H49.0502V1.54545H47.0502ZM48.0502 26H43.8368V28H48.0502V26ZM44.8368 27V1.54545H42.8368V27H44.8368ZM43.8368 2.54545H48.0502V0.545454H43.8368V2.54545ZM59.7919 27H58.7919V28H59.7919V27ZM59.7919 7.90909V6.90909H58.7919V7.90909H59.7919ZM63.8313 7.90909H64.8313V6.90909H63.8313V7.90909ZM63.8313 11.1033H62.8313V12.1033H63.8313V11.1033ZM64.055 11.1033V12.1033H64.7518L64.9931 11.4497L64.055 11.1033ZM66.0188 8.58025L66.5718 9.41349L66.577 9.40998L66.0188 8.58025ZM72.544 8.58025L71.9716 9.40022L71.9752 9.40272L72.544 8.58025ZM74.4457 11.1033L73.5038 11.4392L73.7406 12.1033H74.4457V11.1033ZM74.6445 11.1033V12.1033H75.3088L75.5663 11.4911L74.6445 11.1033ZM76.8072 8.60511L77.334 9.45509L77.3391 9.45193L76.8072 8.60511ZM84.6499 9.31356L83.9427 10.0207L83.9454 10.0233L84.6499 9.31356ZM86.3153 27V28H87.3153V27H86.3153ZM82.1019 27H81.1019V28H82.1019V27ZM81.1076 12.0852L80.4552 12.8431L80.46 12.8472L81.1076 12.0852ZM76.0739 12.2965L76.8154 12.9674L76.8193 12.9631L76.0739 12.2965ZM75.1293 27V28H76.1293V27H75.1293ZM70.978 27H69.978V28H70.978V27ZM70.0582 12.1474L70.7605 11.4355V11.4355L70.0582 12.1474ZM65.8324 11.7621L66.3544 12.6151L66.3635 12.6094L65.8324 11.7621ZM64.5025 13.1914L65.3822 13.6669V13.6669L64.5025 13.1914ZM64.0053 27V28H65.0053V27H64.0053ZM60.7919 27V7.90909H58.7919V27H60.7919ZM59.7919 8.90909H63.8313V6.90909H59.7919V8.90909ZM62.8313 7.90909V11.1033H64.8313V7.90909H62.8313ZM63.8313 12.1033H64.055V10.1033H63.8313V12.1033ZM64.9931 11.4497C65.3213 10.561 65.8462 9.89497 66.5718 9.41347L65.4659 7.74704C64.3685 8.4753 63.5843 9.4913 63.1169 10.757L64.9931 11.4497ZM66.577 9.40998C67.2981 8.92489 68.1899 8.66051 69.3001 8.66051V6.66051C67.8582 6.66051 66.5625 7.0093 65.4606 7.75053L66.577 9.40998ZM69.3001 8.66051C70.4212 8.66051 71.2923 8.92598 71.9716 9.40021L73.1165 7.7603C72.0391 7.0082 70.7476 6.66051 69.3001 6.66051V8.66051ZM71.9752 9.40272C72.6802 9.89025 73.189 10.5565 73.5038 11.4392L75.3876 10.7675C74.94 9.51236 74.1811 8.49658 73.1128 7.75779L71.9752 9.40272ZM74.4457 12.1033H74.6445V10.1033H74.4457V12.1033ZM75.5663 11.4911C75.9215 10.6466 76.5001 9.972 77.334 9.45508L76.2803 7.75515C75.1091 8.48113 74.2459 9.47197 73.7228 10.7156L75.5663 11.4911ZM77.3391 9.45193C78.1579 8.93759 79.156 8.66051 80.3743 8.66051V6.66051C78.8417 6.66051 77.4616 7.01317 76.2753 7.7583L77.3391 9.45193ZM80.3743 8.66051C81.8927 8.66051 83.0518 9.12973 83.9427 10.0207L85.357 8.60646C84.0438 7.29332 82.3526 6.66051 80.3743 6.66051V8.66051ZM83.9454 10.0233C84.805 10.8765 85.3153 12.2047 85.3153 14.1857H87.3153C87.3153 11.8746 86.7153 9.95469 85.3543 8.60381L83.9454 10.0233ZM85.3153 14.1857V27H87.3153V14.1857H85.3153ZM86.3153 26H82.1019V28H86.3153V26ZM83.1019 27V14.7575H81.1019V27H83.1019ZM83.1019 14.7575C83.1019 13.3683 82.7205 12.1438 81.7552 11.3233L80.46 12.8472C80.8204 13.1536 81.1019 13.7105 81.1019 14.7575H83.1019ZM81.76 11.3273C80.9081 10.5941 79.8753 10.2401 78.7212 10.2401V12.2401C79.4398 12.2401 79.9979 12.4495 80.4552 12.8431L81.76 11.3273ZM78.7212 10.2401C77.3639 10.2401 76.1859 10.671 75.3284 11.63L76.8193 12.9631C77.2214 12.5134 77.8082 12.2401 78.7212 12.2401V10.2401ZM75.3323 11.6256C74.5079 12.5369 74.1293 13.6894 74.1293 14.9936H76.1293C76.1293 14.0937 76.3804 13.4482 76.8154 12.9674L75.3323 11.6256ZM74.1293 14.9936V27H76.1293V14.9936H74.1293ZM75.1293 26H70.978V28H75.1293V26ZM71.978 27V14.5586H69.978V27H71.978ZM71.978 14.5586C71.978 13.3359 71.5955 12.2592 70.7605 11.4355L69.356 12.8593C69.7473 13.2453 69.978 13.776 69.978 14.5586H71.978ZM70.7605 11.4355C69.9344 10.6205 68.8739 10.2401 67.6719 10.2401V12.2401C68.4254 12.2401 68.9557 12.4644 69.356 12.8593L70.7605 11.4355ZM67.6719 10.2401C66.8177 10.2401 66.0196 10.4645 65.3013 10.9148L66.3635 12.6094C66.7555 12.3637 67.1838 12.2401 67.6719 12.2401V10.2401ZM65.3104 10.9091C64.5941 11.3474 64.0319 11.959 63.6228 12.7159L65.3822 13.6669C65.6359 13.1975 65.9603 12.8562 66.3544 12.615L65.3104 10.9091ZM63.6228 12.7159C63.2003 13.4975 63.0053 14.3787 63.0053 15.3292H65.0053C65.0053 14.6557 65.1418 14.1116 65.3822 13.6669L63.6228 12.7159ZM63.0053 15.3292V27H65.0053V15.3292H63.0053ZM64.0053 26H59.7919V28H64.0053V26ZM112.835 12.8185L112.964 13.8102L114.036 13.6709L113.814 12.6125L112.835 12.8185ZM109.007 13.3157L108.048 13.5979L108.289 14.4174L109.136 14.3074L109.007 13.3157ZM108.373 12.1225L107.584 12.7365L107.592 12.7472L108.373 12.1225ZM107.205 11.2152L106.764 12.1127L106.776 12.1186L107.205 11.2152ZM102.917 11.5011L102.372 10.6626L102.367 10.6658L102.917 11.5011ZM102.594 14.5959L103.232 13.8265V13.8265L102.594 14.5959ZM104.744 15.4908L104.517 16.4647L104.53 16.4677L104.744 15.4908ZM107.926 16.1868L108.143 15.2108L108.139 15.2099L107.926 16.1868ZM111.915 18.0511L112.609 17.3306L111.915 18.0511ZM112.201 24.4893L111.403 23.887L111.402 23.8882L112.201 24.4893ZM99.7101 25.9435L99.1419 26.7664L99.1441 26.768L99.7101 25.9435ZM97.187 21.9041L97.0755 20.9103L96.0263 21.028L96.2007 22.0693L97.187 21.9041ZM101.289 21.4442L102.262 21.2167L102.06 20.3515L101.177 20.4505L101.289 21.4442ZM102.594 23.4577L102.027 24.2818L102.033 24.2858L102.039 24.2898L102.594 23.4577ZM108.274 20.3132L107.604 21.0558L107.611 21.0627L107.619 21.0694L108.274 20.3132ZM106.297 19.4556L106.088 20.4334L106.089 20.4337L106.297 19.4556ZM103.053 18.7596L102.844 19.7373L102.844 19.7373L103.053 18.7596ZM99.0265 16.8207L98.3029 17.511L98.3063 17.5144L99.0265 16.8207ZM98.6909 10.3825L97.8909 9.78246L97.8899 9.7837L98.6909 10.3825ZM101.376 8.38139L101.757 9.30567L101.763 9.30328L101.376 8.38139ZM110.461 9.06499L109.862 9.86563L109.865 9.86817L110.461 9.06499ZM112.706 11.8269L108.878 12.324L109.136 14.3074L112.964 13.8102L112.706 11.8269ZM109.966 13.0335C109.802 12.4761 109.527 11.9636 109.154 11.4978L107.592 12.7472C107.816 13.0272 107.963 13.3101 108.048 13.5979L109.966 13.0335ZM109.162 11.5086C108.763 10.9955 108.243 10.601 107.633 10.3118L106.776 12.1186C107.144 12.2934 107.403 12.5038 107.584 12.7365L109.162 11.5086ZM107.646 10.3177C106.981 9.99115 106.21 9.85476 105.378 9.85476V11.8548C106.003 11.8548 106.45 11.9587 106.764 12.1126L107.646 10.3177ZM105.378 9.85476C104.252 9.85476 103.231 10.1038 102.372 10.6626L103.462 12.3395C103.928 12.0366 104.547 11.8548 105.378 11.8548V9.85476ZM102.367 10.6658C101.477 11.2514 100.935 12.1033 100.935 13.179H102.935C102.935 12.8791 103.047 12.6125 103.467 12.3364L102.367 10.6658ZM100.935 13.179C100.935 14.0508 101.283 14.8072 101.955 15.3653L103.232 13.8265C103.026 13.6554 102.935 13.4671 102.935 13.179H100.935ZM101.955 15.3653C102.574 15.8791 103.473 16.221 104.517 16.4646L104.971 14.5169C104.026 14.2965 103.492 14.0418 103.232 13.8265L101.955 15.3653ZM104.53 16.4677L107.712 17.1637L108.139 15.2099L104.957 14.5139L104.53 16.4677ZM107.708 17.1628C109.393 17.539 110.526 18.1018 111.222 18.7717L112.609 17.3306C111.548 16.3101 110.021 15.63 108.143 15.2108L107.708 17.1628ZM111.222 18.7717C111.881 19.4058 112.233 20.2358 112.233 21.3572H114.233C114.233 19.7608 113.706 18.3868 112.609 17.3306L111.222 18.7717ZM112.233 21.3572C112.233 22.3236 111.956 23.1547 111.403 23.887L112.999 25.0917C113.822 24.0011 114.233 22.7441 114.233 21.3572H112.233ZM111.402 23.8882C110.843 24.631 110.053 25.2394 108.987 25.6952L109.773 27.5342C111.11 26.9625 112.2 26.154 113 25.0905L111.402 23.8882ZM108.987 25.6952C107.932 26.1461 106.682 26.3853 105.216 26.3853V28.3853C106.898 28.3853 108.425 28.1107 109.773 27.5342L108.987 25.6952ZM105.216 26.3853C103.081 26.3853 101.462 25.9332 100.276 25.1191L99.1441 26.768C100.759 27.8762 102.811 28.3853 105.216 28.3853V26.3853ZM100.278 25.1206C99.1181 24.3196 98.4205 23.2153 98.1732 21.739L96.2007 22.0693C96.5335 24.0565 97.5179 25.6452 99.1419 26.7664L100.278 25.1206ZM97.2984 22.8979L101.4 22.438L101.177 20.4505L97.0755 20.9103L97.2984 22.8979ZM100.315 21.6718C100.571 22.7666 101.132 23.6661 102.027 24.2818L103.16 22.6337C102.73 22.3379 102.421 21.8951 102.262 21.2167L100.315 21.6718ZM102.039 24.2898C102.919 24.8764 103.994 25.1289 105.191 25.1289V23.1289C104.267 23.1289 103.611 22.934 103.148 22.6257L102.039 24.2898ZM105.191 25.1289C106.447 25.1289 107.568 24.8711 108.465 24.2587L107.337 22.6071C106.875 22.9227 106.189 23.1289 105.191 23.1289V25.1289ZM108.465 24.2587C109.351 23.6532 109.92 22.7998 109.92 21.7177H107.92C107.92 21.9945 107.809 22.2846 107.337 22.6071L108.465 24.2587ZM109.92 21.7177C109.92 20.8602 109.576 20.1174 108.928 19.557L107.619 21.0694C107.833 21.2548 107.92 21.4483 107.92 21.7177H109.92ZM108.943 19.5706C108.334 19.0208 107.478 18.6847 106.506 18.4775L106.089 20.4337C106.906 20.6077 107.368 20.8433 107.604 21.0558L108.943 19.5706ZM106.507 18.4779L103.263 17.7818L102.844 19.7373L106.088 20.4334L106.507 18.4779ZM103.263 17.7819C101.555 17.4152 100.427 16.8332 99.7467 16.1269L98.3063 17.5144C99.3659 18.6144 100.923 19.325 102.844 19.7373L103.263 17.7819ZM99.75 16.1304C99.0845 15.4329 98.7338 14.5496 98.7338 13.4027H96.7338C96.7338 15.0067 97.245 16.4021 98.3029 17.511L99.75 16.1304ZM98.7338 13.4027C98.7338 12.4383 98.9946 11.6463 99.4918 10.9812L97.8899 9.7837C97.1111 10.8256 96.7338 12.0471 96.7338 13.4027H98.7338ZM99.4909 10.9825C100.014 10.2847 100.755 9.71974 101.757 9.30565L100.994 7.45713C99.7094 7.98764 98.6601 8.75678 97.8909 9.78246L99.4909 10.9825ZM101.763 9.30328C102.762 8.88356 103.943 8.66051 105.328 8.66051V6.66051C103.73 6.66051 102.276 6.91805 100.988 7.4595L101.763 9.30328ZM105.328 8.66051C107.365 8.66051 108.84 9.10059 109.862 9.86562L111.06 8.26435C109.58 7.15675 107.633 6.66051 105.328 6.66051V8.66051ZM109.865 9.86817C110.913 10.6455 111.574 11.6808 111.856 13.0245L113.814 12.6125C113.434 10.8076 112.511 9.34058 111.057 8.26181L109.865 9.86817Z" fill="white" fill-opacity="0.7"/>
</svg>
