<svg width="112" height="30" viewBox="0 0 112 30" fill="none" xmlns="http://www.w3.org/2000/svg">
<path d="M0.420455 30V0.90909H18.8438V5.08523H5.37784V13.3381H17.5653V17.5284H5.37784V30H0.420455ZM36.8153 0.90909V30H31.858V0.90909H36.8153ZM50.7955 30V0.90909H55.7528V25.8239H68.6932V30H50.7955ZM81.4126 0.90909H87.4496L96.3274 22.5568H96.6683L105.532 0.90909H111.569V30H106.825V9.61648H106.569L98.3303 29.929H94.6655L86.4268 9.58807H86.157V30H81.4126V0.90909Z" fill="white" fill-opacity="0.79"/>
<path d="M0.420455 30H-0.579545V31H0.420455V30ZM0.420455 0.90909V-0.09091H-0.579545V0.90909H0.420455ZM18.8438 0.90909H19.8438V-0.09091H18.8438V0.90909ZM18.8438 5.08523V6.08523H19.8438V5.08523H18.8438ZM5.37784 5.08523V4.08523H4.37784V5.08523H5.37784ZM5.37784 13.3381H4.37784V14.3381H5.37784V13.3381ZM17.5653 13.3381H18.5653V12.3381H17.5653V13.3381ZM17.5653 17.5284V18.5284H18.5653V17.5284H17.5653ZM5.37784 17.5284V16.5284H4.37784V17.5284H5.37784ZM5.37784 30V31H6.37784V30H5.37784ZM1.42045 30V0.90909H-0.579545V30H1.42045ZM0.420455 1.90909H18.8438V-0.09091H0.420455V1.90909ZM17.8438 0.90909V5.08523H19.8438V0.90909H17.8438ZM18.8438 4.08523H5.37784V6.08523H18.8438V4.08523ZM4.37784 5.08523V13.3381H6.37784V5.08523H4.37784ZM5.37784 14.3381H17.5653V12.3381H5.37784V14.3381ZM16.5653 13.3381V17.5284H18.5653V13.3381H16.5653ZM17.5653 16.5284H5.37784V18.5284H17.5653V16.5284ZM4.37784 17.5284V30H6.37784V17.5284H4.37784ZM5.37784 29H0.420455V31H5.37784V29ZM36.8153 0.90909H37.8153V-0.09091H36.8153V0.90909ZM36.8153 30V31H37.8153V30H36.8153ZM31.858 30H30.858V31H31.858V30ZM31.858 0.90909V-0.09091H30.858V0.90909H31.858ZM35.8153 0.90909V30H37.8153V0.90909H35.8153ZM36.8153 29H31.858V31H36.8153V29ZM32.858 30V0.90909H30.858V30H32.858ZM31.858 1.90909H36.8153V-0.09091H31.858V1.90909ZM50.7955 30H49.7955V31H50.7955V30ZM50.7955 0.90909V-0.09091H49.7955V0.90909H50.7955ZM55.7528 0.90909H56.7528V-0.09091H55.7528V0.90909ZM55.7528 25.8239H54.7528V26.8239H55.7528V25.8239ZM68.6932 25.8239H69.6932V24.8239H68.6932V25.8239ZM68.6932 30V31H69.6932V30H68.6932ZM51.7955 30V0.90909H49.7955V30H51.7955ZM50.7955 1.90909H55.7528V-0.09091H50.7955V1.90909ZM54.7528 0.90909V25.8239H56.7528V0.90909H54.7528ZM55.7528 26.8239H68.6932V24.8239H55.7528V26.8239ZM67.6932 25.8239V30H69.6932V25.8239H67.6932ZM68.6932 29H50.7955V31H68.6932V29ZM81.4126 0.90909V-0.09091H80.4126V0.90909H81.4126ZM87.4496 0.90909L88.3748 0.529654L88.1203 -0.09091H87.4496V0.90909ZM96.3274 22.5568L95.4022 22.9363L95.6567 23.5568H96.3274V22.5568ZM96.6683 22.5568V23.5568H97.3395L97.5938 22.9357L96.6683 22.5568ZM105.532 0.90909V-0.09091H104.861L104.607 0.530173L105.532 0.90909ZM111.569 0.90909H112.569V-0.09091H111.569V0.90909ZM111.569 30V31H112.569V30H111.569ZM106.825 30H105.825V31H106.825V30ZM106.825 9.61648H107.825V8.61648H106.825V9.61648ZM106.569 9.61648V8.61648H105.895L105.642 9.24062L106.569 9.61648ZM98.3303 29.929V30.929H99.0038L99.2569 30.3048L98.3303 29.929ZM94.6655 29.929L93.7386 30.3044L93.9916 30.929H94.6655V29.929ZM86.4268 9.58807L87.3537 9.21266L87.1007 8.58807H86.4268V9.58807ZM86.157 9.58807V8.58807H85.157V9.58807H86.157ZM86.157 30V31H87.157V30H86.157ZM81.4126 30H80.4126V31H81.4126V30ZM81.4126 1.90909H87.4496V-0.09091H81.4126V1.90909ZM86.5244 1.28853L95.4022 22.9363L97.2526 22.1774L88.3748 0.529654L86.5244 1.28853ZM96.3274 23.5568H96.6683V21.5568H96.3274V23.5568ZM97.5938 22.9357L106.457 1.28801L104.607 0.530173L95.7429 22.1779L97.5938 22.9357ZM105.532 1.90909H111.569V-0.09091H105.532V1.90909ZM110.569 0.90909V30H112.569V0.90909H110.569ZM111.569 29H106.825V31H111.569V29ZM107.825 30V9.61648H105.825V30H107.825ZM106.825 8.61648H106.569V10.6165H106.825V8.61648ZM105.642 9.24062L97.4036 29.5531L99.2569 30.3048L107.496 9.99233L105.642 9.24062ZM98.3303 28.929H94.6655V30.929H98.3303V28.929ZM95.5923 29.5536L87.3537 9.21266L85.5 9.96347L93.7386 30.3044L95.5923 29.5536ZM86.4268 8.58807H86.157V10.5881H86.4268V8.58807ZM85.157 9.58807V30H87.157V9.58807H85.157ZM86.157 29H81.4126V31H86.157V29ZM82.4126 30V0.90909H80.4126V30H82.4126Z" fill="white"/>
</svg>
