<svg width="212" height="33" viewBox="0 0 212 33" fill="none" xmlns="http://www.w3.org/2000/svg">
<path d="M12.5617 32.75C11.3451 32.75 10.1784 32.6333 9.06172 32.4C7.94505 32.1833 6.92005 31.8417 5.98672 31.375C5.07005 30.9083 4.28672 30.3417 3.63672 29.675C2.97005 28.9417 2.42005 28.1167 1.98672 27.2C1.57005 26.2667 1.26172 25.3 1.06172 24.3C0.878385 23.2833 0.786719 22.2833 0.786719 21.3C0.786719 20.65 0.861719 20.0833 1.01172 19.6C1.17839 19.1167 1.40339 18.7083 1.68672 18.375C1.98672 18.025 2.32839 17.7667 2.71172 17.6C3.11172 17.4333 3.53672 17.35 3.98672 17.35C4.47005 17.35 4.87005 17.5 5.18672 17.8C5.50339 18.1 5.74505 18.65 5.91172 19.45C6.02839 20.35 6.17005 21.175 6.33672 21.925C6.52005 22.6583 6.76172 23.3417 7.06172 23.975C7.54505 25.0083 8.18672 25.775 8.98672 26.275C9.78672 26.7583 10.7534 27 11.8867 27C13.0201 27 13.9284 26.85 14.6117 26.55C15.2951 26.2333 15.8951 25.7583 16.4117 25.125C16.9951 24.4083 17.4451 23.5333 17.7617 22.5C18.0784 21.45 18.2951 20.275 18.4117 18.975C18.5451 17.6583 18.6117 16.275 18.6117 14.825C18.6117 13.6417 18.5867 12.525 18.5367 11.475C18.5034 10.425 18.4617 9.45833 18.4117 8.575C18.3617 7.675 18.3034 6.86667 18.2367 6.15C18.1867 5.43333 18.1367 4.81667 18.0867 4.3C18.0534 3.76667 18.0367 3.325 18.0367 2.975C18.0367 2.375 18.1284 1.85833 18.3117 1.425C18.4951 0.974999 18.8201 0.633332 19.2867 0.399998C19.7701 0.166665 20.4701 0.0499991 21.3867 0.0499991C22.1201 0.0499991 22.7451 0.208332 23.2617 0.524997C23.7951 0.824998 24.2451 1.26667 24.6117 1.85C24.8117 2.23333 24.9951 2.69167 25.1617 3.225C25.3451 3.74167 25.5034 4.35 25.6367 5.05C25.7701 5.73333 25.8784 6.50833 25.9617 7.375C26.0617 8.225 26.1367 9.15833 26.1867 10.175C26.2367 11.1917 26.2617 12.3 26.2617 13.5C26.2617 15.7667 26.1451 17.725 25.9117 19.375C25.6951 21.025 25.3867 22.4417 24.9867 23.625C24.6034 24.7917 24.1534 25.8 23.6367 26.65C23.1367 27.5 22.6034 28.25 22.0367 28.9C20.7867 30.3167 19.3201 31.3083 17.6367 31.875C15.9701 32.4583 14.2784 32.75 12.5617 32.75ZM44.1094 31.925C40.5927 31.925 37.7594 30.9917 35.6094 29.125C33.476 27.2583 31.9344 24.7917 30.9844 21.725C30.801 21.0917 30.6344 20.4333 30.4844 19.75C30.351 19.0667 30.2344 18.3667 30.1344 17.65C30.0344 16.9333 29.951 16.2 29.8844 15.45C29.8177 14.6833 29.7677 13.9083 29.7344 13.125C29.701 12.3417 29.6844 11.5417 29.6844 10.725C29.6844 8.45833 29.8177 6.65 30.0844 5.3C30.351 3.93333 30.776 2.95833 31.3594 2.375C31.9594 1.775 32.7344 1.475 33.6844 1.475C34.351 1.475 34.8927 1.73333 35.3094 2.25C35.726 2.75 36.0344 3.64167 36.2344 4.925C36.4344 6.19166 36.5344 7.98333 36.5344 10.3C36.5344 10.9833 36.5427 11.6667 36.5594 12.35C36.576 13.0167 36.6094 13.675 36.6594 14.325C36.7094 14.9583 36.7677 15.5833 36.8344 16.2C36.901 16.8167 36.9844 17.4083 37.0844 17.975C37.201 18.5417 37.326 19.075 37.4594 19.575C37.9594 21.3583 38.7344 22.7917 39.7844 23.875C40.8344 24.9583 42.2927 25.5 44.1594 25.5C45.326 25.5 46.3427 25.25 47.2094 24.75C48.0927 24.25 48.8427 23.5583 49.4594 22.675C50.076 21.7917 50.5844 20.775 50.9844 19.625C51.201 18.9583 51.3844 18.2583 51.5344 17.525C51.701 16.775 51.8344 16.0083 51.9344 15.225C52.0344 14.425 52.1094 13.6083 52.1594 12.775C52.2094 11.9417 52.2344 11.1083 52.2344 10.275C52.2344 8.10833 52.351 6.40833 52.5844 5.175C52.8177 3.94167 53.1844 3.06667 53.6844 2.55C54.1844 2.03333 54.826 1.775 55.6094 1.775C56.4427 1.775 57.076 2.08333 57.5094 2.7C57.9594 3.31667 58.2594 4.3 58.4094 5.65C58.576 7 58.6594 8.79167 58.6594 11.025C58.6594 11.8083 58.6344 12.5917 58.5844 13.375C58.551 14.1417 58.4927 14.9 58.4094 15.65C58.3427 16.3833 58.2427 17.1083 58.1094 17.825C57.9927 18.525 57.851 19.2167 57.6844 19.9C57.5177 20.5667 57.326 21.225 57.1094 21.875C56.4427 23.8917 55.5094 25.6583 54.3094 27.175C53.126 28.675 51.6844 29.8417 49.9844 30.675C48.2844 31.5083 46.326 31.925 44.1094 31.925ZM67.0492 32.2C66.0992 32.2 65.4242 31.9083 65.0242 31.325C64.6242 30.7583 64.2909 29.9333 64.0242 28.85C63.8909 28.1667 63.7742 27.4167 63.6742 26.6C63.5742 25.7833 63.4992 24.9333 63.4492 24.05C63.3992 23.15 63.3576 22.2333 63.3242 21.3C63.3076 20.35 63.2992 19.4 63.2992 18.45C63.3326 17.25 63.3826 16.05 63.4492 14.85C63.5159 13.65 63.6076 12.5 63.7242 11.4C63.8409 10.2833 63.9742 9.29167 64.1242 8.425C64.2909 7.54167 64.4659 6.84167 64.6492 6.325C65.0826 5.09166 65.6576 4.10833 66.3742 3.375C67.0909 2.64167 67.9159 2.11667 68.8492 1.8C69.7826 1.46666 70.7576 1.3 71.7742 1.3C72.9409 1.3 73.9492 1.55833 74.7992 2.075C75.6659 2.59167 76.3326 3.34167 76.7992 4.325C77.0659 4.875 77.3326 5.55833 77.5992 6.375C77.8659 7.19167 78.1159 8.05833 78.3492 8.975C78.5992 9.89167 78.8242 10.8083 79.0242 11.725C79.2409 12.625 79.4242 13.4583 79.5742 14.225C79.7576 15.175 79.9659 16.0167 80.1992 16.75C80.4492 17.4667 80.8159 17.825 81.2992 17.825C81.7826 17.825 82.1409 17.525 82.3742 16.925C82.6242 16.325 82.8159 15.6583 82.9492 14.925C83.0826 14.075 83.2326 13.1667 83.3992 12.2C83.5659 11.2333 83.7492 10.275 83.9492 9.325C84.1659 8.35833 84.3909 7.44166 84.6242 6.575C84.8742 5.70833 85.1242 4.94167 85.3742 4.275C85.8242 3.325 86.4576 2.59167 87.2742 2.075C88.1076 1.55833 89.1742 1.3 90.4742 1.3C91.4409 1.3 92.3242 1.475 93.1242 1.825C93.9242 2.15833 94.6409 2.65 95.2742 3.3C95.9076 3.95 96.4409 4.75 96.8742 5.7C97.2576 6.48333 97.5826 7.525 97.8492 8.825C98.1326 10.1083 98.3492 11.5667 98.4992 13.2C98.6492 14.8167 98.7409 16.5083 98.7742 18.275C98.7742 19.1583 98.7742 20.0417 98.7742 20.925C98.7742 21.8083 98.7576 22.6917 98.7242 23.575C98.6909 24.4417 98.6409 25.3 98.5742 26.15C98.5242 26.9833 98.4409 27.8 98.3242 28.6C98.0909 29.5667 97.7159 30.275 97.1992 30.725C96.6992 31.1583 95.9742 31.375 95.0242 31.375C94.4409 31.375 93.9742 31.225 93.6242 30.925C93.2909 30.625 93.0742 30.2 92.9742 29.65C92.9409 29.0833 92.9076 28.4917 92.8742 27.875C92.8409 27.2417 92.7992 26.5917 92.7492 25.925C92.7159 25.2417 92.6826 24.5583 92.6492 23.875C92.6159 23.1917 92.5826 22.5167 92.5492 21.85C92.4992 20.5333 92.4326 19.2667 92.3492 18.05C92.2659 16.8167 92.1659 15.7167 92.0492 14.75C91.9492 13.7667 91.8242 13.025 91.6742 12.525C91.3909 11.5917 91.0659 10.8833 90.6992 10.4C90.3492 9.91667 89.8242 9.675 89.1242 9.675C88.5409 9.675 88.0242 9.91667 87.5742 10.4C87.1409 10.8667 86.8159 11.5667 86.5992 12.5C86.5159 12.9 86.4159 13.4083 86.2992 14.025C86.1826 14.625 86.0576 15.2917 85.9242 16.025C85.8076 16.7417 85.6826 17.4917 85.5492 18.275C85.4326 19.0417 85.3159 19.8 85.1992 20.55C85.0826 21.2833 84.9742 21.9667 84.8742 22.6C84.6242 23.9 84.2076 24.8833 83.6242 25.55C83.0576 26.2 82.2576 26.525 81.2242 26.525C79.9909 26.525 79.1076 26.0917 78.5742 25.225C78.0409 24.3583 77.5576 23.1917 77.1242 21.725C77.0242 21.2417 76.8992 20.65 76.7492 19.95C76.5992 19.25 76.4409 18.5083 76.2742 17.725C76.1076 16.925 75.9409 16.1333 75.7742 15.35C75.6076 14.5667 75.4492 13.8583 75.2992 13.225C75.1659 12.575 75.0409 12.05 74.9242 11.65C74.7076 10.7833 74.4076 10.15 74.0242 9.75C73.6576 9.35 73.2159 9.15 72.6992 9.15C71.9659 9.15 71.4326 9.425 71.0992 9.975C70.7826 10.525 70.5242 11.4 70.3242 12.6C70.2576 13 70.1992 13.5167 70.1492 14.15C70.0992 14.7833 70.0576 15.5 70.0242 16.3C69.9909 17.0833 69.9576 17.925 69.9242 18.825C69.9076 19.725 69.8992 20.6417 69.8992 21.575C69.8992 22.5417 69.8909 23.4583 69.8742 24.325C69.8742 25.1917 69.8576 26 69.8242 26.75C69.7909 27.5 69.7492 28.1667 69.6992 28.75C69.6659 29.3167 69.6159 29.7833 69.5492 30.15C69.3659 30.7667 69.0742 31.2583 68.6742 31.625C68.2909 32.0083 67.7492 32.2 67.0492 32.2ZM132.871 32C132.188 32 131.596 31.825 131.096 31.475C130.613 31.1417 130.18 30.6333 129.796 29.95C129.646 29.5 129.48 28.975 129.296 28.375C129.113 27.7583 128.93 27.1333 128.746 26.5C128.58 25.8667 128.405 25.2667 128.221 24.7C128.038 24.1167 127.855 23.6333 127.671 23.25C127.438 22.7167 127.146 22.325 126.796 22.075C126.463 21.825 125.963 21.65 125.296 21.55C124.963 21.5167 124.455 21.475 123.771 21.425C123.105 21.3583 122.371 21.3083 121.571 21.275C120.771 21.225 120.021 21.2 119.321 21.2C118.255 21.2 117.171 21.225 116.071 21.275C114.971 21.325 114.021 21.3917 113.221 21.475C112.538 21.5417 112.021 21.6833 111.671 21.9C111.338 22.1 111.063 22.4583 110.846 22.975C110.63 23.4583 110.405 24.0417 110.171 24.725C109.938 25.4083 109.705 26.125 109.471 26.875C109.238 27.625 109.005 28.3583 108.771 29.075C108.421 29.875 107.996 30.4833 107.496 30.9C107.013 31.3 106.338 31.5 105.471 31.5C104.805 31.5 104.246 31.3917 103.796 31.175C103.346 30.9583 103.013 30.6 102.796 30.1C102.58 29.6 102.471 28.9417 102.471 28.125C102.471 27.3583 102.58 26.4417 102.796 25.375C103.013 24.2917 103.305 23.125 103.671 21.875C104.055 20.625 104.471 19.3583 104.921 18.075C105.388 16.7917 105.855 15.5583 106.321 14.375C106.805 13.175 107.263 12.1 107.696 11.15C108.13 10.1833 108.505 9.41667 108.821 8.85C109.388 7.8 110.03 6.79166 110.746 5.825C111.48 4.85833 112.288 4 113.171 3.25C114.071 2.48333 115.055 1.88333 116.121 1.45C117.188 0.999998 118.363 0.774997 119.646 0.774997C121.713 0.774997 123.571 1.4 125.221 2.65C126.888 3.9 128.363 5.55833 129.646 7.625C130.13 8.325 130.613 9.23333 131.096 10.35C131.596 11.45 132.088 12.675 132.571 14.025C133.055 15.3583 133.505 16.7417 133.921 18.175C134.338 19.6083 134.705 21.0167 135.021 22.4C135.355 23.7833 135.605 25.0583 135.771 26.225C135.955 27.3917 136.046 28.375 136.046 29.175C136.046 30.2083 135.763 30.9333 135.196 31.35C134.63 31.7833 133.855 32 132.871 32ZM125.621 17.225C125.988 17.1583 126.23 17.0167 126.346 16.8C126.463 16.5833 126.521 16.2417 126.521 15.775C126.521 15.2583 126.43 14.625 126.246 13.875C126.08 13.1083 125.846 12.3083 125.546 11.475C125.246 10.625 124.896 9.83333 124.496 9.1C123.93 8.01667 123.263 7.11667 122.496 6.4C121.73 5.66667 120.905 5.3 120.021 5.3C119.055 5.3 118.13 5.68333 117.246 6.45C116.38 7.2 115.613 8.15833 114.946 9.325C114.663 9.79167 114.371 10.325 114.071 10.925C113.771 11.525 113.496 12.1417 113.246 12.775C112.996 13.4083 112.788 14.0083 112.621 14.575C112.471 15.125 112.396 15.5917 112.396 15.975C112.396 16.475 112.596 16.825 112.996 17.025C113.396 17.2083 114.038 17.3 114.921 17.3C116.788 17.3 118.405 17.3 119.771 17.3C121.138 17.3 122.296 17.3 123.246 17.3C124.213 17.3 125.005 17.275 125.621 17.225ZM144.04 32.2C143.357 32.2 142.79 31.9833 142.34 31.55C141.907 31.1333 141.54 30.5417 141.24 29.775C141.09 29.375 140.949 28.7167 140.815 27.8C140.682 26.8667 140.557 25.7833 140.44 24.55C140.324 23.3167 140.215 22.0333 140.115 20.7C140.032 19.35 139.957 18.0333 139.89 16.75C139.824 15.4667 139.774 14.3167 139.74 13.3C139.707 12.2667 139.69 11.475 139.69 10.925C139.69 8.975 139.815 7.325 140.065 5.975C140.332 4.60833 140.807 3.56667 141.49 2.85C142.174 2.11667 143.165 1.75 144.465 1.75C145.365 1.75 146.257 2.11667 147.14 2.85C148.024 3.56667 149.057 4.70833 150.24 6.275C151.424 7.84167 152.89 9.88333 154.64 12.4C156.974 15.8333 158.849 18.3833 160.265 20.05C161.682 21.7 162.699 22.525 163.315 22.525C163.615 22.525 163.857 22.45 164.04 22.3C164.24 22.15 164.39 21.85 164.49 21.4C164.607 20.9333 164.682 20.2333 164.715 19.3C164.749 18.9 164.765 18.2917 164.765 17.475C164.765 16.6583 164.757 15.7417 164.74 14.725C164.74 13.6917 164.732 12.6333 164.715 11.55C164.699 10.4667 164.69 9.44167 164.69 8.475C164.69 7.50833 164.69 6.68333 164.69 6C164.707 5.31667 164.732 4.85833 164.765 4.625C164.965 3.625 165.29 2.93333 165.74 2.55C166.19 2.16667 166.815 1.975 167.615 1.975C168.215 1.975 168.715 2.08333 169.115 2.3C169.532 2.5 169.865 2.80833 170.115 3.225C170.382 3.625 170.574 4.15 170.69 4.8C170.824 5.43333 170.907 6.18333 170.94 7.05C170.957 7.55 170.974 8.275 170.99 9.225C171.007 10.175 171.024 11.2583 171.04 12.475C171.057 13.675 171.057 14.925 171.04 16.225C171.04 17.525 171.024 18.7917 170.99 20.025C170.974 21.2417 170.94 22.35 170.89 23.35C170.84 24.35 170.765 25.15 170.665 25.75C170.465 27.0333 170.157 28.1083 169.74 28.975C169.34 29.825 168.799 30.4667 168.115 30.9C167.449 31.3167 166.59 31.525 165.54 31.525C164.59 31.525 163.549 31.05 162.415 30.1C161.282 29.1333 160.057 27.8083 158.74 26.125C157.44 24.425 156.049 22.5083 154.565 20.375C153.615 19.0083 152.732 17.75 151.915 16.6C151.099 15.4333 150.374 14.425 149.74 13.575C149.124 12.7083 148.599 12.0417 148.165 11.575C147.732 11.0917 147.407 10.85 147.19 10.85C146.807 10.85 146.54 11.075 146.39 11.525C146.24 11.9583 146.165 12.8417 146.165 14.175C146.165 14.9417 146.182 15.7917 146.215 16.725C146.249 17.6417 146.29 18.5917 146.34 19.575C146.39 20.5583 146.449 21.55 146.515 22.55C146.582 23.5333 146.632 24.4917 146.665 25.425C146.699 26.3417 146.715 27.1917 146.715 27.975C146.732 28.7583 146.715 29.4333 146.665 30C146.482 30.85 146.174 31.425 145.74 31.725C145.307 32.0417 144.74 32.2 144.04 32.2ZM185.853 32.75C184.636 32.75 183.469 32.6333 182.353 32.4C181.236 32.1833 180.211 31.8417 179.278 31.375C178.361 30.9083 177.578 30.3417 176.928 29.675C176.261 28.9417 175.711 28.1167 175.278 27.2C174.861 26.2667 174.553 25.3 174.353 24.3C174.169 23.2833 174.078 22.2833 174.078 21.3C174.078 20.65 174.153 20.0833 174.303 19.6C174.469 19.1167 174.694 18.7083 174.978 18.375C175.278 18.025 175.619 17.7667 176.003 17.6C176.403 17.4333 176.828 17.35 177.278 17.35C177.761 17.35 178.161 17.5 178.478 17.8C178.794 18.1 179.036 18.65 179.203 19.45C179.319 20.35 179.461 21.175 179.628 21.925C179.811 22.6583 180.053 23.3417 180.353 23.975C180.836 25.0083 181.478 25.775 182.278 26.275C183.078 26.7583 184.044 27 185.178 27C186.311 27 187.219 26.85 187.903 26.55C188.586 26.2333 189.186 25.7583 189.703 25.125C190.286 24.4083 190.736 23.5333 191.053 22.5C191.369 21.45 191.586 20.275 191.703 18.975C191.836 17.6583 191.903 16.275 191.903 14.825C191.903 13.6417 191.878 12.525 191.828 11.475C191.794 10.425 191.753 9.45833 191.703 8.575C191.653 7.675 191.594 6.86667 191.528 6.15C191.478 5.43333 191.428 4.81667 191.378 4.3C191.344 3.76667 191.328 3.325 191.328 2.975C191.328 2.375 191.419 1.85833 191.603 1.425C191.786 0.974999 192.111 0.633332 192.578 0.399998C193.061 0.166665 193.761 0.0499991 194.678 0.0499991C195.411 0.0499991 196.036 0.208332 196.553 0.524997C197.086 0.824998 197.536 1.26667 197.903 1.85C198.103 2.23333 198.286 2.69167 198.453 3.225C198.636 3.74167 198.794 4.35 198.928 5.05C199.061 5.73333 199.169 6.50833 199.253 7.375C199.353 8.225 199.428 9.15833 199.478 10.175C199.528 11.1917 199.553 12.3 199.553 13.5C199.553 15.7667 199.436 17.725 199.203 19.375C198.986 21.025 198.678 22.4417 198.278 23.625C197.894 24.7917 197.444 25.8 196.928 26.65C196.428 27.5 195.894 28.25 195.328 28.9C194.078 30.3167 192.611 31.3083 190.928 31.875C189.261 32.4583 187.569 32.75 185.853 32.75ZM207.575 31.325C206.475 31.325 205.659 30.925 205.125 30.125C204.609 29.325 204.35 28.2917 204.35 27.025C204.35 26.4917 204.35 25.7417 204.35 24.775C204.35 23.8083 204.359 22.7 204.375 21.45C204.392 20.2 204.409 18.875 204.425 17.475C204.459 16.075 204.492 14.6667 204.525 13.25C204.575 11.8333 204.634 10.4833 204.7 9.2C204.767 7.91667 204.842 6.775 204.925 5.775C205.109 4.15833 205.434 3.01667 205.9 2.35C206.367 1.68333 207.125 1.35 208.175 1.35C209.059 1.35 209.7 1.69166 210.1 2.375C210.5 3.04167 210.759 3.95833 210.875 5.125C210.909 5.84167 210.942 6.74167 210.975 7.825C211.009 8.90833 211.034 10.0917 211.05 11.375C211.067 12.6583 211.075 13.975 211.075 15.325C211.092 16.6583 211.1 17.95 211.1 19.2C211.1 20.4333 211.1 21.5583 211.1 22.575C211.1 23.575 211.092 24.375 211.075 24.975C211.075 26.5583 210.967 27.8167 210.75 28.75C210.534 29.6667 210.175 30.325 209.675 30.725C209.192 31.125 208.492 31.325 207.575 31.325Z" fill="white"/>
</svg>
