<svg width="140" height="40" viewBox="0 0 140 40" fill="none" xmlns="http://www.w3.org/2000/svg">
<path d="M17.2156 17.7784C17.0735 16.5 16.4911 15.5057 15.4684 14.7955C14.4457 14.0852 13.1341 13.7301 11.5337 13.7301C10.3974 13.7301 9.42199 13.9053 8.6076 14.2557C7.79321 14.5966 7.16347 15.0653 6.71839 15.6619C6.28279 16.2585 6.06025 16.9403 6.05078 17.7074C6.05078 18.3419 6.19756 18.8911 6.49112 19.3551C6.79415 19.8191 7.19661 20.2121 7.69851 20.5341C8.2004 20.8561 8.74965 21.1259 9.34624 21.3438C9.94283 21.5521 10.5347 21.7273 11.1218 21.8693L13.8917 22.5653C14.9334 22.8116 15.9514 23.1477 16.9457 23.5739C17.9495 23.9905 18.8585 24.5256 19.6729 25.179C20.4968 25.8229 21.1502 26.6136 21.6332 27.5511C22.1256 28.4886 22.3718 29.5966 22.3718 30.875C22.3718 32.5606 21.9409 34.0473 21.0792 35.3352C20.2174 36.6231 18.9722 37.6316 17.3434 38.3608C15.7146 39.09 13.7449 39.4545 11.4343 39.4545C9.20893 39.4545 7.27711 39.1089 5.63885 38.4176C4.00059 37.7169 2.71745 36.7083 1.78942 35.392C0.870857 34.0663 0.373698 32.4706 0.29794 30.6051H5.19851C5.27427 31.6373 5.59624 32.4943 6.16442 33.1761C6.7326 33.858 7.47124 34.3646 8.38033 34.696C9.28942 35.0275 10.2979 35.1932 11.4059 35.1932C12.5801 35.1932 13.6218 35.0133 14.5309 34.6534C15.44 34.2841 16.1502 33.7727 16.6616 33.1193C17.1824 32.4659 17.4428 31.7083 17.4428 30.8466C17.4428 30.0511 17.2156 29.393 16.761 28.8722C16.3065 28.3513 15.6767 27.9205 14.8718 27.5795C14.0763 27.2386 13.1578 26.9309 12.1161 26.6562L8.74964 25.7614C6.38222 25.1458 4.50722 24.2178 3.12464 22.9773C1.75154 21.7273 1.06972 20.0701 1.07919 18.0057C1.06972 16.3106 1.52427 14.8286 2.44283 13.5597C3.37086 12.2812 4.63033 11.2869 6.22124 10.5767C7.81215 9.86648 9.60665 9.51136 11.6048 9.51136C13.6407 9.51136 15.4258 9.86648 16.9599 10.5767C18.5034 11.2775 19.7156 12.2528 20.5962 13.5028C21.4769 14.7434 21.9362 16.1686 21.9741 17.7784H17.2156ZM35.2759 39V9.90909H53.9407V14.0852H40.2333V22.3381H52.989V26.5284H40.2333V34.8239H54.0827V39H35.2759ZM42.7333 7.02557L45.9577 0.50568H50.7873L46.4123 7.02557H42.7333ZM67.4947 39V9.90909H78.2191C80.454 9.90909 82.3242 10.2973 83.8299 11.0739C85.3451 11.8504 86.4862 12.9347 87.2532 14.3267C88.0202 15.7093 88.4038 17.3144 88.4038 19.142C88.4038 20.9792 88.0155 22.5795 87.239 23.9432C86.4625 25.2973 85.3166 26.3485 83.8015 27.0966C82.2863 27.8352 80.4066 28.2045 78.1623 28.2045H70.3498V24.071H77.5657C78.9199 24.071 80.0231 23.8816 80.8754 23.5028C81.7276 23.1146 82.3574 22.5559 82.7646 21.8267C83.1718 21.0881 83.3754 20.1932 83.3754 19.142C83.3754 18.0909 83.1718 17.1866 82.7646 16.429C82.3574 15.6619 81.7229 15.0795 80.8612 14.6818C79.9994 14.2746 78.8867 14.071 77.5231 14.071H72.4521V39H67.4947ZM82.2816 25.8324L89.4833 39H83.9293L76.8555 25.8324H82.2816ZM106.39 9.90909V39H101.432V9.90909H106.39ZM120.37 39V9.90909H139.034V14.0852H125.327V22.3381H138.083V26.5284H125.327V34.8239H139.176V39H120.37Z" fill="white" fill-opacity="0.79"/>
<path d="M17.2156 17.7784L16.2217 17.8888L16.3205 18.7784H17.2156V17.7784ZM15.4684 14.7955L14.898 15.6168V15.6168L15.4684 14.7955ZM8.6076 14.2557L8.99376 15.1782L9.00281 15.1743L8.6076 14.2557ZM6.7184 15.6619L5.91683 15.0639L5.91077 15.0722L6.7184 15.6619ZM6.05078 17.7074L5.05078 17.695V17.7074H6.05078ZM6.49112 19.3551L5.64604 19.8898L5.6499 19.8959L5.65385 19.9019L6.49112 19.3551ZM7.69851 20.5341L8.23846 19.6924V19.6924L7.69851 20.5341ZM9.34624 21.3438L9.00326 22.2832L9.01655 22.2878L9.34624 21.3438ZM11.1218 21.8693L11.3655 20.8994L11.357 20.8974L11.1218 21.8693ZM13.8917 22.5653L13.648 23.5353L13.6617 23.5385L13.8917 22.5653ZM16.9457 23.5739L16.5517 24.4931L16.5623 24.4975L16.9457 23.5739ZM19.6729 25.179L19.0471 25.959L19.0571 25.9669L19.6729 25.179ZM21.6332 27.5511L20.7442 28.0091L20.7479 28.0161L21.6332 27.5511ZM21.0792 35.3352L21.9103 35.8913H21.9103L21.0792 35.3352ZM5.63885 38.4176L5.24557 39.337L5.25008 39.3389L5.63885 38.4176ZM1.78942 35.392L0.96741 35.9616L0.972124 35.9683L1.78942 35.392ZM0.29794 30.6051V29.6051H-0.743493L-0.701236 30.6457L0.29794 30.6051ZM5.19851 30.6051L6.19583 30.5319L6.1278 29.6051H5.19851V30.6051ZM6.16442 33.1761L6.93264 32.536L6.16442 33.1761ZM8.38033 34.696L8.0378 35.6355L8.38033 34.696ZM14.5309 34.6534L14.899 35.5833L14.9073 35.5799L14.5309 34.6534ZM16.6616 33.1193L15.8796 32.496L15.8741 32.503L16.6616 33.1193ZM16.761 28.8722L16.0076 29.5297V29.5297L16.761 28.8722ZM14.8718 27.5795L14.4779 28.4987L14.4818 28.5004L14.8718 27.5795ZM12.1161 26.6562L11.8592 27.6227L11.8612 27.6232L12.1161 26.6562ZM8.74965 25.7614L9.00655 24.7949L9.00128 24.7935L8.74965 25.7614ZM3.12465 22.9773L2.45145 23.7168L2.45681 23.7216L3.12465 22.9773ZM1.07919 18.0057L2.07923 18.0103L2.07917 18.0001L1.07919 18.0057ZM2.44283 13.5597L1.63357 12.9722L1.63279 12.9733L2.44283 13.5597ZM6.22124 10.5767L5.81359 9.66356L5.81358 9.66357L6.22124 10.5767ZM16.9599 10.5767L16.5397 11.4842L16.5465 11.4873L16.9599 10.5767ZM20.5962 13.5028L19.7787 14.0788L19.7808 14.0817L20.5962 13.5028ZM21.9741 17.7784V18.7784H22.9979L22.9738 17.7549L21.9741 17.7784ZM18.2094 17.668C18.0367 16.1134 17.3075 14.8551 16.0388 13.9741L14.898 15.6168C15.6747 16.1562 16.1103 16.8866 16.2217 17.8888L18.2094 17.668ZM16.0388 13.9741C14.8066 13.1184 13.28 12.7301 11.5337 12.7301V14.7301C12.9882 14.7301 14.0848 15.0521 14.898 15.6168L16.0388 13.9741ZM11.5337 12.7301C10.2982 12.7301 9.18146 12.9202 8.21239 13.3371L9.00281 15.1743C9.66253 14.8904 10.4965 14.7301 11.5337 14.7301V12.7301ZM8.22146 13.3332C7.27299 13.7303 6.4873 14.2993 5.91687 15.064L7.51992 16.2599C7.83964 15.8313 8.31342 15.4629 8.99374 15.1781L8.22146 13.3332ZM5.91077 15.0722C5.34772 15.8434 5.06279 16.7288 5.05086 17.695L7.0507 17.7197C7.05772 17.1519 7.21786 16.6737 7.52602 16.2516L5.91077 15.0722ZM5.05078 17.7074C5.05078 18.5011 5.23633 19.2421 5.64604 19.8898L7.3362 18.8205C7.15879 18.5401 7.05078 18.1826 7.05078 17.7074H5.05078ZM5.65385 19.9019C6.0398 20.4929 6.54701 20.9835 7.15855 21.3758L8.23846 19.6924C7.84622 19.4408 7.54851 19.1454 7.32839 18.8083L5.65385 19.9019ZM7.15855 21.3758C7.7262 21.7399 8.34211 22.0417 9.0033 22.2831L9.68918 20.4044C9.15718 20.2102 8.6746 19.9722 8.23846 19.6924L7.15855 21.3758ZM9.01655 22.2878C9.64276 22.5065 10.2662 22.6912 10.8867 22.8413L11.357 20.8974C10.8032 20.7634 10.2429 20.5976 9.67592 20.3997L9.01655 22.2878ZM10.8781 22.8392L13.648 23.5352L14.1354 21.5955L11.3655 20.8995L10.8781 22.8392ZM13.6617 23.5385C14.6466 23.7713 15.6098 24.0893 16.5517 24.493L17.3396 22.6547C16.2929 22.2061 15.2201 21.8518 14.1217 21.5922L13.6617 23.5385ZM16.5623 24.4975C17.4825 24.8794 18.3093 25.367 19.0471 25.959L20.2987 24.399C19.4078 23.6841 18.4164 23.1016 17.329 22.6503L16.5623 24.4975ZM19.0571 25.9669C19.7662 26.5211 20.3268 27.1989 20.7442 28.0091L22.5221 27.0932C21.9736 26.0284 21.2274 25.1248 20.2888 24.3911L19.0571 25.9669ZM20.7479 28.0161C21.1509 28.7834 21.3718 29.7253 21.3718 30.875H23.3718C23.3718 29.4679 23.1003 28.1939 22.5185 27.0861L20.7479 28.0161ZM21.3718 30.875C21.3718 32.3808 20.99 33.6703 20.2481 34.7791L21.9103 35.8913C22.8918 34.4244 23.3718 32.7404 23.3718 30.875H21.3718ZM20.2481 34.7791C19.506 35.8882 18.4186 36.7838 16.9348 37.4481L17.752 39.2735C19.5258 38.4794 20.9289 37.358 21.9103 35.8913L20.2481 34.7791ZM16.9348 37.4481C15.4665 38.1054 13.6439 38.4545 11.4343 38.4545V40.4545C13.8459 40.4545 15.9627 40.0745 17.752 39.2735L16.9348 37.4481ZM11.4343 38.4545C9.31001 38.4545 7.5161 38.1244 6.02762 37.4963L5.25008 39.3389C7.03812 40.0934 9.10784 40.4545 11.4343 40.4545V38.4545ZM6.03213 37.4982C4.54558 36.8623 3.4168 35.9648 2.60671 34.8158L0.972124 35.9683C2.0181 37.4518 3.4556 38.5714 5.24557 39.337L6.03213 37.4982ZM2.6114 34.8225C1.81704 33.676 1.36642 32.271 1.29712 30.5645L-0.701236 30.6457C-0.61902 32.6703 -0.0753242 34.4565 0.967437 35.9616L2.6114 34.8225ZM0.29794 31.6051H5.19851V29.6051H0.29794V31.6051ZM4.20119 30.6783C4.28961 31.8831 4.67309 32.9486 5.3962 33.8163L6.93264 32.536C6.51938 32.04 6.25892 31.3915 6.19583 30.5319L4.20119 30.6783ZM5.3962 33.8163C6.08744 34.6458 6.9783 35.2493 8.0378 35.6355L8.72286 33.7565C7.96417 33.4799 7.37776 33.0701 6.93264 32.536L5.3962 33.8163ZM8.0378 35.6355C9.07133 36.0123 10.1978 36.1932 11.4059 36.1932V34.1932C10.3981 34.1932 9.50751 34.0426 8.72286 33.7565L8.0378 35.6355ZM11.4059 36.1932C12.6814 36.1932 13.8517 35.9977 14.8989 35.5832L14.1628 33.7236C13.3919 34.0288 12.4788 34.1932 11.4059 34.1932V36.1932ZM14.9073 35.5799C15.9484 35.1569 16.8119 34.5498 17.4491 33.7356L15.8741 32.503C15.4885 32.9957 14.9315 33.4113 14.1545 33.7269L14.9073 35.5799ZM17.4436 33.7426C18.1103 32.9062 18.4428 31.9271 18.4428 30.8466H16.4428C16.4428 31.4895 16.2546 32.0256 15.8796 32.496L17.4436 33.7426ZM18.4428 30.8466C18.4428 29.8481 18.1517 28.9448 17.5144 28.2146L16.0076 29.5297C16.2794 29.8412 16.4428 30.2542 16.4428 30.8466H18.4428ZM17.5144 28.2146C16.9375 27.5535 16.1704 27.0435 15.2618 26.6587L14.4818 28.5004C15.1831 28.7974 15.6754 29.1491 16.0076 29.5297L17.5144 28.2146ZM15.2657 26.6604C14.4158 26.2962 13.4492 25.9735 12.371 25.6893L11.8612 27.6232C12.8664 27.8882 13.7369 28.1811 14.4779 28.4987L15.2657 26.6604ZM12.373 25.6898L9.00655 24.7949L8.49274 26.7278L11.8592 27.6227L12.373 25.6898ZM9.00128 24.7935C6.74131 24.2059 5.02455 23.3385 3.79248 22.233L2.45681 23.7216C3.98989 25.0972 6.02314 26.0857 8.49801 26.7292L9.00128 24.7935ZM3.79783 22.2378C2.65879 21.2009 2.07085 19.8268 2.07918 18.0103L0.0792007 18.0011C0.0685942 20.3133 0.844289 22.2537 2.45146 23.7168L3.79783 22.2378ZM2.07917 18.0001C2.07079 16.4991 2.4693 15.2285 3.25287 14.146L1.63279 12.9733C0.579229 14.4287 0.0686524 16.1221 0.079206 18.0113L2.07917 18.0001ZM3.25208 14.1471C4.06675 13.0249 5.18118 12.1361 6.62889 11.4898L5.81358 9.66357C4.07947 10.4377 2.67496 11.5376 1.63357 12.9722L3.25208 14.1471ZM6.62889 11.4898C8.074 10.8447 9.72658 10.5114 11.6048 10.5114V8.51136C9.48672 8.51136 7.55029 8.88825 5.81359 9.66356L6.62889 11.4898ZM11.6048 10.5114C13.5248 10.5114 15.1614 10.8461 16.5397 11.4842L17.38 9.66924C15.6901 8.88688 13.7567 8.51136 11.6048 8.51136V10.5114ZM16.5465 11.4873C17.946 12.1226 19.0114 12.9897 19.7788 14.0788L21.4137 12.9269C20.4197 11.516 19.0608 10.4323 17.3733 9.66614L16.5465 11.4873ZM19.7808 14.0817C20.5392 15.1499 20.9409 16.3792 20.9744 17.8019L22.9738 17.7549C22.9315 15.958 22.4147 14.3368 21.4116 12.924L19.7808 14.0817ZM21.9741 16.7784H17.2156V18.7784H21.9741V16.7784ZM35.2759 39H34.2759V40H35.2759V39ZM35.2759 9.90909V8.90909H34.2759V9.90909H35.2759ZM53.9407 9.90909H54.9407V8.90909H53.9407V9.90909ZM53.9407 14.0852V15.0852H54.9407V14.0852H53.9407ZM40.2333 14.0852V13.0852H39.2333V14.0852H40.2333ZM40.2333 22.3381H39.2333V23.3381H40.2333V22.3381ZM52.989 22.3381H53.989V21.3381H52.989V22.3381ZM52.989 26.5284V27.5284H53.989V26.5284H52.989ZM40.2333 26.5284V25.5284H39.2333V26.5284H40.2333ZM40.2333 34.8239H39.2333V35.8239H40.2333V34.8239ZM54.0827 34.8239H55.0827V33.8239H54.0827V34.8239ZM54.0827 39V40H55.0827V39H54.0827ZM42.7333 7.02557L41.8369 6.58226L41.1231 8.02557H42.7333V7.02557ZM45.9577 0.50568V-0.49432H45.3367L45.0614 0.062376L45.9577 0.50568ZM50.7873 0.50568L51.6177 1.06288L52.6626 -0.49432H50.7873V0.50568ZM46.4123 7.02557V8.02557H46.9455L47.2427 7.58277L46.4123 7.02557ZM36.2759 39V9.90909H34.2759V39H36.2759ZM35.2759 10.9091H53.9407V8.90909H35.2759V10.9091ZM52.9407 9.90909V14.0852H54.9407V9.90909H52.9407ZM53.9407 13.0852H40.2333V15.0852H53.9407V13.0852ZM39.2333 14.0852V22.3381H41.2333V14.0852H39.2333ZM40.2333 23.3381H52.989V21.3381H40.2333V23.3381ZM51.989 22.3381V26.5284H53.989V22.3381H51.989ZM52.989 25.5284H40.2333V27.5284H52.989V25.5284ZM39.2333 26.5284V34.8239H41.2333V26.5284H39.2333ZM40.2333 35.8239H54.0827V33.8239H40.2333V35.8239ZM53.0827 34.8239V39H55.0827V34.8239H53.0827ZM54.0827 38H35.2759V40H54.0827V38ZM43.6297 7.46887L46.8541 0.948984L45.0614 0.062376L41.8369 6.58226L43.6297 7.46887ZM45.9577 1.50568H50.7873V-0.49432H45.9577V1.50568ZM49.9569 -0.0515223L45.5819 6.46837L47.2427 7.58277L51.6177 1.06288L49.9569 -0.0515223ZM46.4123 6.02557H42.7333V8.02557H46.4123V6.02557ZM67.4947 39H66.4947V40H67.4947V39ZM67.4947 9.90909V8.90909H66.4947V9.90909H67.4947ZM83.8299 11.0739L83.3715 11.9626L83.3738 11.9638L83.8299 11.0739ZM87.2532 14.3267L86.3774 14.8093L86.3788 14.8118L87.2532 14.3267ZM87.239 23.9432L88.1065 24.4406L88.108 24.438L87.239 23.9432ZM83.8015 27.0966L84.2397 27.9955L84.2442 27.9932L83.8015 27.0966ZM70.3498 28.2045H69.3498V29.2045H70.3498V28.2045ZM70.3498 24.071V23.071H69.3498V24.071H70.3498ZM80.8754 23.5028L81.2815 24.4167L81.2899 24.4129L80.8754 23.5028ZM82.7646 21.8267L83.6377 22.3143L83.6403 22.3095L82.7646 21.8267ZM82.7646 16.429L81.8813 16.8979L81.8837 16.9024L82.7646 16.429ZM80.8612 14.6818L80.4339 15.586L80.4421 15.5898L80.8612 14.6818ZM72.4521 14.071V13.071H71.4521V14.071H72.4521ZM72.4521 39V40H73.4521V39H72.4521ZM82.2816 25.8324L83.159 25.3525L82.8745 24.8324H82.2816V25.8324ZM89.4833 39V40H91.17L90.3607 38.5202L89.4833 39ZM83.9293 39L83.0484 39.4732L83.3314 40H83.9293V39ZM76.8555 25.8324V24.8324H75.1831L75.9745 26.3056L76.8555 25.8324ZM68.4947 39V9.90909H66.4947V39H68.4947ZM67.4947 10.9091H78.2191V8.90909H67.4947V10.9091ZM78.2191 10.9091C80.3434 10.9091 82.0455 11.2788 83.3715 11.9626L84.2883 10.1851C82.6029 9.31594 80.5645 8.90909 78.2191 8.90909V10.9091ZM83.3738 11.9638C84.7248 12.6562 85.7135 13.6045 86.3774 14.8093L88.129 13.8441C87.2588 12.2649 85.9653 11.0446 84.286 10.1839L83.3738 11.9638ZM86.3788 14.8118C87.0514 16.0243 87.4038 17.4574 87.4038 19.142H89.4038C89.4038 17.1714 88.9891 15.3943 88.1276 13.8416L86.3788 14.8118ZM87.4038 19.142C87.4038 20.8355 87.047 22.2595 86.37 23.4483L88.108 24.438C88.984 22.8996 89.4038 21.1228 89.4038 19.142H87.4038ZM86.3715 23.4457C85.702 24.6133 84.7112 25.5322 83.3588 26.1999L84.2442 27.9932C85.9221 27.1648 87.223 25.9814 88.1065 24.4406L86.3715 23.4457ZM83.3633 26.1977C82.0221 26.8515 80.3028 27.2045 78.1623 27.2045V29.2045C80.5104 29.2045 82.5506 28.8189 84.2397 27.9955L83.3633 26.1977ZM78.1623 27.2045H70.3498V29.2045H78.1623V27.2045ZM71.3498 28.2045V24.071H69.3498V28.2045H71.3498ZM70.3498 25.071H77.5657V23.071H70.3498V25.071ZM77.5657 25.071C79.0016 25.071 80.2572 24.8719 81.2815 24.4167L80.4692 22.589C79.789 22.8913 78.8381 23.071 77.5657 23.071V25.071ZM81.2899 24.4129C82.3115 23.9475 83.1141 23.2519 83.6376 22.3143L81.8915 21.3391C81.6007 21.8599 81.1438 22.2817 80.4608 22.5928L81.2899 24.4129ZM83.6403 22.3095C84.1467 21.3908 84.3754 20.3211 84.3754 19.142H82.3754C82.3754 20.0653 82.1968 20.7853 81.8888 21.3439L83.6403 22.3095ZM84.3754 19.142C84.3754 17.962 84.1464 16.8876 83.6454 15.9555L81.8837 16.9024C82.1971 17.4855 82.3754 18.2198 82.3754 19.142H84.3754ZM83.6478 15.9601C83.1284 14.9817 82.321 14.2542 81.2802 13.7739L80.4421 15.5898C81.1248 15.9049 81.5863 16.3422 81.8813 16.8979L83.6478 15.9601ZM81.2884 13.7777C80.2483 13.2862 78.9754 13.071 77.5231 13.071V15.071C78.7981 15.071 79.7505 15.263 80.4339 15.586L81.2884 13.7777ZM77.5231 13.071H72.4521V15.071H77.5231V13.071ZM71.4521 14.071V39H73.4521V14.071H71.4521ZM72.4521 38H67.4947V40H72.4521V38ZM81.4043 26.3122L88.606 39.4798L90.3607 38.5202L83.159 25.3525L81.4043 26.3122ZM89.4833 38H83.9293V40H89.4833V38ZM84.8103 38.5268L77.7364 25.3591L75.9745 26.3056L83.0484 39.4732L84.8103 38.5268ZM76.8555 26.8324H82.2816V24.8324H76.8555V26.8324ZM106.39 9.90909H107.39V8.90909H106.39V9.90909ZM106.39 39V40H107.39V39H106.39ZM101.432 39H100.432V40H101.432V39ZM101.432 9.90909V8.90909H100.432V9.90909H101.432ZM105.39 9.90909V39H107.39V9.90909H105.39ZM106.39 38H101.432V40H106.39V38ZM102.432 39V9.90909H100.432V39H102.432ZM101.432 10.9091H106.39V8.90909H101.432V10.9091ZM120.37 39H119.37V40H120.37V39ZM120.37 9.90909V8.90909H119.37V9.90909H120.37ZM139.034 9.90909H140.034V8.90909H139.034V9.90909ZM139.034 14.0852V15.0852H140.034V14.0852H139.034ZM125.327 14.0852V13.0852H124.327V14.0852H125.327ZM125.327 22.3381H124.327V23.3381H125.327V22.3381ZM138.083 22.3381H139.083V21.3381H138.083V22.3381ZM138.083 26.5284V27.5284H139.083V26.5284H138.083ZM125.327 26.5284V25.5284H124.327V26.5284H125.327ZM125.327 34.8239H124.327V35.8239H125.327V34.8239ZM139.176 34.8239H140.176V33.8239H139.176V34.8239ZM139.176 39V40H140.176V39H139.176ZM121.37 39V9.90909H119.37V39H121.37ZM120.37 10.9091H139.034V8.90909H120.37V10.9091ZM138.034 9.90909V14.0852H140.034V9.90909H138.034ZM139.034 13.0852H125.327V15.0852H139.034V13.0852ZM124.327 14.0852V22.3381H126.327V14.0852H124.327ZM125.327 23.3381H138.083V21.3381H125.327V23.3381ZM137.083 22.3381V26.5284H139.083V22.3381H137.083ZM138.083 25.5284H125.327V27.5284H138.083V25.5284ZM124.327 26.5284V34.8239H126.327V26.5284H124.327ZM125.327 35.8239H139.176V33.8239H125.327V35.8239ZM138.176 34.8239V39H140.176V34.8239H138.176ZM139.176 38H120.37V40H139.176V38Z" fill="white"/>
</svg>
